<svg viewBox="0 -34 512.00145 512" xmlns="http://www.w3.org/2000/svg"><path d="m120.839844 311.882812c-24.578125-1.695312-45.039063 17.738282-45.039063 41.949219 0 8.394531-6.578125 13.039063-14.226562 15.238281-6.6875 1.925782-7.652344 10.9375-1.617188 14.394532 20.390625 11.679687 41.433594 12.421875 57.898438 12.421875 24.214843 0 43.648437-20.460938 41.953125-45.035157-1.429688-20.738281-18.230469-37.539062-38.96875-38.96875zm0 0" fill="#7f9ae6"/><path d="m149.058594 444.1875c-9.929688 0-17.976563-8.050781-17.976563-17.980469v-67.484375c0-9.929687 8.046875-17.980468 17.976563-17.980468 9.929687 0 17.976562 8.050781 17.976562 17.980468v67.484375c0 9.929688-8.046875 17.980469-17.976562 17.980469zm0 0" fill="#f9f1da"/><path d="m131.082031 420.527344v5.679687c0 9.929688 8.046875 17.980469 17.976563 17.980469 9.929687 0 17.980468-8.050781 17.980468-17.980469v-5.679687zm0 0" fill="#495059"/><path d="m214.9375 444.1875c-9.929688 0-17.976562-8.050781-17.976562-17.980469v-67.484375c0-9.929687 8.046874-17.980468 17.976562-17.980468s17.976562 8.050781 17.976562 17.980468v67.484375c0 9.929688-8.046874 17.980469-17.976562 17.980469zm0 0" fill="#f9f1da"/><path d="m196.960938 420.527344v5.679687c0 9.929688 8.050781 17.980469 17.976562 17.980469 9.929688 0 17.980469-8.050781 17.980469-17.980469v-5.679687zm0 0" fill="#495059"/><path d="m140.105469 35.316406c-51.34375 0-84.746094 35.261719-84.746094 78.753906 0 3.039063.191406 6.035157.558594 8.984376.699219 5.628906-1.550781 11.179687-5.730469 15.015624-12.292969 11.269532-19.785156 26.207032-19.785156 42.605469 0 19.605469-8.363282 37.992188-24.34375 44.207031-6.640625 2.578126-8.152344 11.363282-2.886719 16.15625 33.921875 30.898438 158.839844 57.453126 197.253906-22.722656 0 0 24.425781-31.335937 24.425781-104.246094.003907-43.492187-26.691406-78.753906-84.746093-78.753906zm0 0" fill="#7f9ae6"/><path d="m233.421875 96.941406c-10.207031 17.671875-2.820313 27.632813 9.332031 34.648438s24.472656 8.433594 34.675782-9.242188c10.203124-17.671875 13.757812-46.582031 1.605468-53.597656s-35.410156 10.515625-45.613281 28.191406zm0 0" fill="#f0e4c0"/><path d="m324.355469 342.867188c-31.605469 0-69.414063-13.863282-83.589844-39.871094-4.75-8.71875-1.535156-19.636719 7.183594-24.390625 8.71875-4.746094 19.636719-1.535157 24.386719 7.183593 7.152343 13.117188 36.5 23.386719 59.246093 20.726563 9.851563-1.152344 18.792969 5.90625 19.945313 15.769531 1.152344 9.859375-5.910156 18.789063-15.773438 19.941406-3.664062.425782-7.484375.640626-11.398437.640626zm0 0" fill="#f5ebcd"/><path d="m331.582031 306.515625c-3.265625.378906-6.671875.488281-10.125.367187l-4.03125 35.761719c2.335938.140625 4.648438.222657 6.929688.222657 3.914062 0 7.734375-.214844 11.398437-.640626 9.863282-1.152343 16.925782-10.082031 15.773438-19.941406-1.152344-9.863281-10.09375-16.921875-19.945313-15.769531zm0 0" fill="#495059"/><path d="m277.53125 301.285156c0 44.335938-28.5625 80.273438-92.101562 80.273438-63.539063 0-92.101563-35.9375-92.101563-80.273438 0-44.332031 41.234375-80.269531 92.101563-80.269531 50.867187 0 92.101562 35.9375 92.101562 80.269531zm0 0" fill="#f9f1da"/><path d="m185.429688 381.558594c18.640624 0 34.25-3.113282 47.03125-8.605469-123.941407-7.421875-98.257813-124.320313-53.464844-151.738281-47.863282 2.878906-85.667969 37.625-85.667969 80.070312 0 44.335938 28.5625 80.273438 92.101563 80.273438zm0 0" fill="#f0e4c0"/><path d="m354.628906 138.269531c-34.910156-34.910156-105.097656-55.433593-184.632812-55.433593-52.066406 0-94.28125 42.210937-94.28125 94.277343 0 52.070313 42.214844 94.28125 94.28125 94.28125 57.53125 0 143.507812 10.070313 184.632812-31.054687 28.1875-28.1875 28.1875-73.882813 0-102.070313zm0 0" fill="#f9f1da"/><path d="m118.554688 98.101562c-25.789063 16.824219-42.839844 45.925782-42.839844 79.011719 0 52.070313 42.214844 94.28125 94.28125 94.28125 38.785156 0 90.5 4.574219 132.683594-5.046875-208.007813 14.621094-210.96875-110.105468-184.125-168.246094zm0 0" fill="#f5ebcd"/><path d="m176.566406 172.269531c0-8.707031-12.164062-15.765625-27.167968-15.765625-15.007813 0-27.167969 7.058594-27.167969 15.765625s12.160156 15.765625 27.167969 15.765625c15.003906 0 27.167968-7.058594 27.167968-15.765625zm0 0" fill="#e88c98"/><path d="m323.824219 172.269531c0-8.707031-12.164063-15.765625-27.167969-15.765625s-27.167969 7.058594-27.167969 15.765625 12.164063 15.765625 27.167969 15.765625 27.167969-7.058594 27.167969-15.765625zm0 0" fill="#e88c98"/><path d="m165.230469 151.484375c-4.144531 0-7.5-3.359375-7.5-7.5v-9.59375c0-4.144531 3.355469-7.5 7.5-7.5 4.140625 0 7.5 3.355469 7.5 7.5v9.59375c0 4.140625-3.359375 7.5-7.5 7.5zm0 0" fill="#495059"/><path d="m280.824219 151.484375c-4.144531 0-7.5-3.359375-7.5-7.5v-9.59375c0-4.144531 3.355469-7.5 7.5-7.5 4.140625 0 7.5 3.355469 7.5 7.5v9.59375c0 4.140625-3.359375 7.5-7.5 7.5zm0 0" fill="#495059"/><path d="m299.046875 247.488281c-8.007813 0-15.621094-3.46875-20.890625-9.515625-2.722656-3.121094-2.398438-7.859375.726562-10.582031 3.121094-2.71875 7.859376-2.394531 10.582032.726563 2.417968 2.777343 5.910156 4.371093 9.582031 4.371093s7.164063-1.59375 9.582031-4.371093c2.722656-3.121094 7.457032-3.445313 10.582032-.726563 3.125 2.722656 3.449218 7.460937.730468 10.582031-5.273437 6.046875-12.886718 9.515625-20.894531 9.515625zm0 0" fill="#495059"/><path d="m238.148438 121.582031c-18.695313 4.621094-38.328126-2.523437-49.675782-18.082031-3.761718-5.152344-4.058594-12.058594-.757812-17.519531l47.367187-78.382813c3.886719-6.433594 11.78125-9.214844 18.84375-6.648437 7.0625 2.574219 11.320313 9.78125 10.164063 17.203125l-14.097656 90.496094c-.980469 6.300781-5.652344 11.402343-11.84375 12.933593zm0 0" fill="#f8e47c"/><path d="m253.925781.949219c-7.0625-2.566407-14.957031.214843-18.84375 6.648437l-20.144531 33.332032c11.671875 1.402343 27.101562.621093 46.617188-6.503907l2.53125-16.269531c1.160156-7.425781-3.097657-14.636719-10.160157-17.207031zm0 0" fill="#e88c98"/><path d="m249.992188 108.648438 4.664062-29.957032c-31.671875 14.375-53.914062 12.605469-67.832031 9-2.304688 5.140625-1.730469 11.179688 1.648437 15.808594 11.347656 15.558594 30.980469 22.703125 49.675782 18.082031 6.191406-1.53125 10.863281-6.632812 11.84375-12.933593zm0 0" fill="#72cda2"/><path d="m136.878906 96.941406c10.203125 17.671875 2.820313 27.632813-9.335937 34.648438-12.152344 7.015625-24.46875 8.433594-34.671875-9.242188-10.203125-17.671875-13.761719-46.582031-1.605469-53.597656 12.148437-7.015625 35.410156 10.515625 45.613281 28.191406zm0 0" fill="#f0e4c0"/><path d="m93.054688 372.324219c-.425782 0-.851563-.015625-1.28125-.046875-9.90625-.695313-17.367188-9.292969-16.667969-19.195313 1.597656-22.703125 5.394531-42.835937 18.722656-67.292969 4.75-8.71875 15.667969-11.933593 24.386719-7.183593 8.71875 4.753906 11.9375 15.671875 7.183594 24.390625-10.296876 18.898437-13.089844 33.601562-14.429688 52.613281-.667969 9.476563-8.558594 16.714844-17.914062 16.714844zm0 0" fill="#f9f1da"/><path d="m75.105469 353.082031c-.699219 9.902344 6.761719 18.5 16.667969 19.199219.429687.03125.855468.042969 1.28125.042969 9.355468 0 17.246093-7.238281 17.917968-16.714844.191406-2.726563.417969-5.355469.6875-7.933594l-35.714844-4.113281c-.335937 3.136719-.613281 6.300781-.839843 9.519531zm0 0" fill="#495059"/><path d="m165.230469 173.523438c-18.9375 0-34.339844-15.402344-34.339844-34.335938 0-18.9375 15.40625-34.339844 34.339844-34.339844 18.933593 0 34.339843 15.40625 34.339843 34.339844s-15.40625 34.335938-34.339843 34.335938zm0-53.675782c-10.664063 0-19.339844 8.675782-19.339844 19.335938 0 10.664062 8.675781 19.339844 19.339844 19.339844 10.664062 0 19.339843-8.675782 19.339843-19.339844 0-10.660156-8.675781-19.335938-19.339843-19.335938zm0 0" fill="#495059"/><path d="m280.824219 173.523438c-18.9375 0-34.339844-15.402344-34.339844-34.335938 0-18.9375 15.40625-34.339844 34.339844-34.339844 18.933593 0 34.339843 15.40625 34.339843 34.339844s-15.40625 34.335938-34.339843 34.335938zm0-53.675782c-10.664063 0-19.339844 8.675782-19.339844 19.335938 0 10.664062 8.675781 19.339844 19.339844 19.339844 10.664062 0 19.339843-8.675782 19.339843-19.339844 0-10.660156-8.675781-19.335938-19.339843-19.335938zm0 0" fill="#495059"/><path d="m253.984375 146.6875h-61.914063c-4.140624 0-7.5-3.359375-7.5-7.5 0-4.144531 3.359376-7.5 7.5-7.5h61.914063c4.140625 0 7.5 3.355469 7.5 7.5 0 4.140625-3.359375 7.5-7.5 7.5zm0 0" fill="#495059"/><path d="m505.140625 275.496094c4.058594 0 7.234375-3.511719 6.824219-7.550782-3.796875-37.421874-35.488282-66.722656-73.894532-66.722656-38.410156 0-70.101562 29.300782-73.898437 66.722656-.40625 4.039063 2.769531 7.550782 6.828125 7.550782h13.941406c0-29.292969 23.835938-53.125 53.128906-53.125 29.292969 0 53.125 23.832031 53.125 53.125zm0 0" fill="#e88c98"/><path d="m474.609375 275.496094c-2.488281 0-4.523437-1.875-4.855469-4.339844-2.117187-15.605469-15.496094-27.636719-31.683594-27.636719-16.191406 0-29.570312 12.03125-31.6875 27.636719-.332031 2.464844-2.367187 4.339844-4.855468 4.339844h-16.585938c0-29.292969 23.832032-53.125 53.128906-53.125 29.292969 0 53.125 23.832031 53.125 53.125zm0 0" fill="#f8e47c"/><path d="m423.496094 150.625h-17.898438c-2.679687 0-5.152344-1.429688-6.492187-3.75l-8.949219-15.5c-1.339844-2.320312-1.339844-5.179688 0-7.5l8.949219-15.5c1.339843-2.320312 3.8125-3.75 6.492187-3.75h17.898438c2.679687 0 5.15625 1.429688 6.496094 3.75l8.949218 15.5c1.339844 2.320312 1.339844 5.179688 0 7.5l-8.949218 15.5c-1.339844 2.320312-3.816407 3.75-6.496094 3.75zm-13.566406-15h9.238281l4.617187-8-4.617187-8h-9.238281l-4.621094 8zm0 0" fill="#72cda2"/><path d="m494.136719 112.484375h-37.851563c-4.140625 0-7.5-3.355469-7.5-7.5 0-4.140625 3.359375-7.5 7.5-7.5h37.851563c4.140625 0 7.5 3.359375 7.5 7.5 0 4.144531-3.359375 7.5-7.5 7.5zm0 0" fill="#afdaee"/><path d="m494.136719 135.125h-37.851563c-4.140625 0-7.5-3.359375-7.5-7.5 0-4.144531 3.359375-7.5 7.5-7.5h37.851563c4.140625 0 7.5 3.355469 7.5 7.5 0 4.140625-3.359375 7.5-7.5 7.5zm0 0" fill="#afdaee"/><path d="m494.136719 157.761719h-37.851563c-4.140625 0-7.5-3.355469-7.5-7.5 0-4.140625 3.359375-7.5 7.5-7.5h37.851563c4.140625 0 7.5 3.359375 7.5 7.5 0 4.144531-3.359375 7.5-7.5 7.5zm0 0" fill="#afdaee"/><path d="m414.546875 196.691406c-4.140625 0-7.5-3.359375-7.5-7.5v-23.167968c0-4.140626 3.359375-7.5 7.5-7.5 4.144531 0 7.5 3.359374 7.5 7.5v23.167968c0 4.140625-3.355469 7.5-7.5 7.5zm0 0" fill="#495059"/><g fill="#7f9ae6"><path d="m365.308594 79.953125c-4.144532 0-7.5-3.355469-7.5-7.5 0-3.511719 2.414062-6.460937 5.671875-7.273437 1.773437-2.296876 4.402343-9.402344 6.019531-13.78125 4.492188-12.152344 8.734375-23.628907 18.496094-23.628907 4.144531 0 7.5 3.359375 7.5 7.5 0 3.546875-2.457032 6.515625-5.765625 7.296875-1.824219 2.296875-4.507813 9.5625-6.160157 14.03125-4.441406 12.011719-8.632812 23.355469-18.261718 23.355469zm22.695312-37.183594c-.003906 0-.007812 0-.007812 0zm0 0"/><path d="m389.761719 61.363281h-13.175781c-4.144532 0-7.5-3.359375-7.5-7.5 0-4.144531 3.355468-7.5 7.5-7.5h13.175781c4.140625 0 7.5 3.355469 7.5 7.5 0 4.140625-3.359375 7.5-7.5 7.5zm0 0"/><path d="m430.734375 70.96875c-1.921875 0-3.839844-.734375-5.304687-2.199219l-19.210938-19.210937c-2.929688-2.925782-2.929688-7.675782 0-10.605469s7.679688-2.929687 10.605469 0l19.210937 19.210937c2.929688 2.929688 2.929688 7.679688 0 10.605469-1.464844 1.464844-3.382812 2.199219-5.300781 2.199219zm0 0"/><path d="m411.523438 70.96875c-1.917969 0-3.839844-.734375-5.304688-2.199219-2.929688-2.925781-2.929688-7.675781 0-10.605469l19.210938-19.210937c2.929687-2.929687 7.679687-2.929687 10.605468 0 2.929688 2.929687 2.929688 7.679687 0 10.605469l-19.210937 19.210937c-1.464844 1.464844-3.382813 2.199219-5.300781 2.199219zm0 0"/><path d="m449.367188 40.601562c-4.140626 0-7.5-3.359374-7.5-7.5v-5.601562c0-4.140625 3.359374-7.5 7.5-7.5 4.144531 0 7.5 3.359375 7.5 7.5v5.601562c0 4.140626-3.355469 7.5-7.5 7.5zm0 0"/></g><path d="m494.136719 61.363281h-22.097657c-4.144531 0-7.5-3.359375-7.5-7.5 0-4.144531 3.355469-7.5 7.5-7.5h22.097657c4.140625 0 7.5 3.355469 7.5 7.5 0 4.140625-3.359375 7.5-7.5 7.5zm0 0" fill="#e88c98"/><path d="m347.386719 324.910156c-3.738281 0-7.476563-1.40625-10.359375-4.226562-5.839844-5.722656-5.941406-15.09375-.21875-20.9375l29.347656-29.96875c5.71875-5.84375 15.09375-5.941406 20.933594-.222656 5.84375 5.722656 5.941406 15.09375.222656 20.9375l-29.347656 29.96875c-2.898438 2.960937-6.738282 4.449218-10.578125 4.449218zm0 0" fill="#a38a80"/></svg>